<svg xmlns="http://www.w3.org/2000/svg" width="38.987" height="42.99" viewBox="91 0 38.987 42.99"><path d="M129.987 25.757a4.526 4.526 0 0 0-3.756-4.42V7.772a5.199 5.199 0 0 0-2.386-4.362 5.405 5.405 0 0 0-4.72-.576l-5.187-1.729c-3.986-1.326-8.181-1.462-12.132-.394-3.404.922-5.852 2.52-7.26 4.704a8.808 8.808 0 0 0-1.337 3.868 6.116 6.116 0 0 0-.946 1.75l-.402 1.168a1.472 1.472 0 0 0-.048.172 1.366 1.366 0 0 0 .543 1.402 1.53 1.53 0 0 0 .098.066 1.478 1.478 0 0 0 .55.206c.402.064.816-.047 1.144-.322a1.524 1.524 0 0 0 .07-.063 2.884 2.884 0 0 1 .538-.4v8.073A4.526 4.526 0 0 0 91 25.757a4.532 4.532 0 0 0 4.014 4.46 15.47 15.47 0 0 0 4.338 8.179 15.692 15.692 0 0 0 11.141 4.594h.002a15.787 15.787 0 0 0 11.127-4.522 15.243 15.243 0 0 0 4.377-8.254 4.532 4.532 0 0 0 3.988-4.457Zm-9.534 11.564c-2.66 2.61-6.196 4.047-9.958 4.047h-.002a14.032 14.032 0 0 1-9.964-4.11c-2.658-2.645-4.121-6.148-4.121-9.864V12.881c.468.035.932.183 1.35.45a16.387 16.387 0 0 0 8.856 2.595c.574 0 1.15-.03 1.726-.09a16.787 16.787 0 0 0 1.335-.195c3.368-.63 6.393-2.256 8.718-4.654v2.198a6.938 6.938 0 0 0 6.186 6.832v7.53a13.603 13.603 0 0 1-4.126 9.774ZM93.668 12.019l.16-.467a4.579 4.579 0 0 1 2.563-2.72 4.704 4.704 0 0 1 1.802-.366 4.706 4.706 0 0 1 1.973.423c2.502 1.143 5.527.525 7.355-1.503l.205-.227a.801.801 0 0 0 .187-.356.801.801 0 0 0-.193-.726.832.832 0 0 0-.065-.063.84.84 0 0 0-1.155.058.833.833 0 0 0-.012.012l-.204.228a4.69 4.69 0 0 1-3.48 1.527c-.658 0-1.32-.136-1.94-.42a6.399 6.399 0 0 0-5.123-.078 6.892 6.892 0 0 0-.437.205 7.355 7.355 0 0 1 2.794-3.448c.752-.52 1.632-.968 2.64-1.343a17.325 17.325 0 0 1 1.507-.48 18.882 18.882 0 0 1 4.936-.654c.39 0 .78.012 1.17.036a19.811 19.811 0 0 1 5.056.985l4.918 1.637.065 4.19c-2.19 2.921-5.384 4.9-9.024 5.579a15.08 15.08 0 0 1-1.203.175 14.92 14.92 0 0 1-1.547.08 14.724 14.724 0 0 1-7.955-2.33 4.563 4.563 0 0 0-2.465-.724 4.53 4.53 0 0 0-2.528.77Zm29.264-7.258c1.047.682 1.647 1.78 1.647 3.012v10.61c-2.564-.392-4.533-2.573-4.533-5.197l-.069-8.914a3.742 3.742 0 0 1 .652-.108c.093-.007.186-.01.28-.01a3.7 3.7 0 0 1 2.023.607Zm-28.176 18.24a2.886 2.886 0 0 0-2.104 2.756 2.89 2.89 0 0 0 2.145 2.77 15.643 15.643 0 0 1-.041-1.133V23Zm31.443 5.522a15.53 15.53 0 0 0 .032-.976V23a2.886 2.886 0 0 1 2.103 2.757c0 1.315-.904 2.426-2.135 2.766Z" fill="rgba(2,60,204, 1)" fill-rule="evenodd" data-name="Icon"/></svg>