<svg xmlns="http://www.w3.org/2000/svg" width="48" height="48.001" viewBox="117 0 48 48.001"><path d="M131.349 12.836a1.546 1.546 0 0 0-.439.867L117.073 46.7a.936.936 0 0 0-.071.309.937.937 0 0 0-.002.054.936.936 0 0 0 .275.662c.18.18.419.276.663.276a.927.927 0 0 0 .053-.002.937.937 0 0 0 .31-.071l.002-.001 32.994-13.837a1.534 1.534 0 0 0 .803-.381.53.53 0 0 0 .034-.03 3.073 3.073 0 0 1 .013-.012l.016-.014a.055.055 0 0 0 .002-.003l.022-.023a1.575 1.575 0 0 0 .44-1.028c.064-.98-.545-2.377-1.862-4.33a31.794 31.794 0 0 0-.633-.903 39.374 39.374 0 0 0-.708-.942 26.194 26.194 0 0 1 3.851-1.44 22.661 22.661 0 0 1 1.489-.37.938.938 0 0 0 .723-1.112.937.937 0 0 0-.916-.743.943.943 0 0 0-.196.02 26.216 26.216 0 0 0-4.59 1.44 30.538 30.538 0 0 0-1.572.704 66.229 66.229 0 0 0-3.898-4.238 67.882 67.882 0 0 0-3.467-3.24 56.574 56.574 0 0 0-1.029-.873 21.185 21.185 0 0 0 3.06-5.32 25.46 25.46 0 0 0 1.561-6.137 32.212 32.212 0 0 0 .263-4.177.938.938 0 0 0-.937-.938.938.938 0 0 0-.938.938 28.333 28.333 0 0 1-.713 6.524 20.028 20.028 0 0 1-3.761 7.944 36.762 36.762 0 0 0-1.03-.76 29.594 29.594 0 0 0-.593-.41 23.476 23.476 0 0 0-1.13-.72c-1.724-1.025-2.926-1.354-3.74-1.023a1.53 1.53 0 0 0-.488.32.155.155 0 0 1-.009.008.132.132 0 0 0-.011.01m2.196 26.668-2.02.848a9.135 9.135 0 0 0 .268-.781 9.816 9.816 0 0 0 .216-.887 11.849 11.849 0 0 0 .214-2.265c.004-2.392-.641-5.075-1.928-8.024a38.967 38.967 0 0 0-1.924-3.792l1.014-2.418a15.825 15.825 0 0 1 .312.388c.643.826 1.303 1.827 1.665 2.567a5.45 5.45 0 0 1 .111.24.937.937 0 0 0 .862.568.909.909 0 0 0 .11-.006.953.953 0 0 0 .26-.07.934.934 0 0 0 .528-.595.935.935 0 0 0 .032-.38.94.94 0 0 0-.07-.257 8.317 8.317 0 0 0-.305-.628c-.565-1.058-1.481-2.361-2.3-3.298a11.324 11.324 0 0 0-.404-.44l1.55-3.695c.235.431.52.898.854 1.406a29.314 29.314 0 0 0 .157.236c.278.41.582.838.909 1.276a17.866 17.866 0 0 1 .583.947c2.224 3.88 2.48 7.762 2.146 10.748a19.965 19.965 0 0 1-.222 1.476c-.595 3.157-1.798 5.56-2.422 6.545a5.172 5.172 0 0 1-.196.29Zm13.752-9.171c-2.038-1.445-4.444-3.524-6.775-5.855a69.684 69.684 0 0 1-1.17-1.198c-1.852-1.943-3.486-3.886-4.683-5.576a27.168 27.168 0 0 1-.583-.855c-.803-1.232-1.12-1.977-1.245-2.393a2.57 2.57 0 0 1-.044-.166 3.133 3.133 0 0 1 .372.113c.55.2 1.502.669 3.041 1.76a35.993 35.993 0 0 1 .785.573 40.448 40.448 0 0 1 .114.086 22.14 22.14 0 0 0-.056.059 9.165 9.165 0 0 1-.141.144.932.932 0 0 0-.258.484.936.936 0 0 0 .217.798.947.947 0 0 0 .04.044.935.935 0 0 0 .662.275.718.718 0 0 0 .002 0 .935.935 0 0 0 .614-.23.954.954 0 0 0 .049-.045c.117-.118.233-.237.348-.357a57.972 57.972 0 0 1 1.995 1.73c.405.368.812.746 1.22 1.135a69.708 69.708 0 0 1 1.184 1.157 65.412 65.412 0 0 1 3.516 3.798 29.699 29.699 0 0 0-.253.142 31.914 31.914 0 0 0-.254.145.937.937 0 0 0-.343 1.28.935.935 0 0 0 .558.434.941.941 0 0 0 .254.035.94.94 0 0 0 .066-.003.932.932 0 0 0 .377-.109.948.948 0 0 0 .025-.014 31.115 31.115 0 0 1 .781-.435 39.7 39.7 0 0 1 .796 1.045 32.737 32.737 0 0 1 .33.457 27.09 27.09 0 0 1 .584.855c.803 1.23 1.12 1.976 1.245 2.392a2.568 2.568 0 0 1 .044.166 3.133 3.133 0 0 1-.373-.112c-.483-.176-1.277-.56-2.508-1.39a28.96 28.96 0 0 1-.533-.37Zm-17.272 8.606a8.344 8.344 0 0 0 .176-.785 9.052 9.052 0 0 0 .095-.712c.21-2.215-.235-5.673-2.85-10.632l-2.81 6.7a19.59 19.59 0 0 1 .299.597c1.48 3.095 1.644 5.597 1.368 7.422a9.188 9.188 0 0 1-.238 1.113l2.47-1.036c.248-.224 1.04-1.04 1.49-2.667Zm10.743-2.464-4.45 1.867a23.677 23.677 0 0 0 1.484-4.362 22.523 22.523 0 0 0 .204-.965 21.863 21.863 0 0 0 .27-1.869c.14-1.403.16-2.977-.057-4.649a19.003 19.003 0 0 0-.392-2.1 73.313 73.313 0 0 0 .676.704 72.25 72.25 0 0 0 .693.704 68.639 68.639 0 0 0 3.333 3.122 58.096 58.096 0 0 0 .841.721c-.123 4.058-1.84 6.091-2.461 6.697a3.68 3.68 0 0 1-.14.13Zm11.237-21.967a.936.936 0 0 0 1.326 0c1.77-1.77 4.467-2.73 6.755-3.106a14.903 14.903 0 0 1 1.21-.149.938.938 0 0 0 .863-.933.948.948 0 0 0-.003-.077.938.938 0 0 0-.936-.862.96.96 0 0 0-.074.003 16.772 16.772 0 0 0-1.802.248c-.715.137-1.459.325-2.203.569a13 13 0 0 0-5.136 2.98.935.935 0 0 0-.256.478.937.937 0 0 0 .213.803.95.95 0 0 0 .043.046ZM124.436 41.32c-.196 1.22-.631 2.023-.84 2.352l-3.908 1.639 3.969-9.462c.582 1.459.879 2.871.879 4.187a8.11 8.11 0 0 1-.1 1.284Zm34.423-2.169h-.937v-.937a.938.938 0 0 0-.938-.938.938.938 0 0 0-.937.938v.937h-.938a.938.938 0 0 0-.937.938c0 .517.42.937.937.937h.938v.937a.938.938 0 0 0 .937.938c.518 0 .938-.42.938-.938v-.937h.937c.518 0 .938-.42.938-.937a.938.938 0 0 0-.938-.938Zm-13.03-22.219h.937v.938a.937.937 0 1 0 1.875 0v-.938h.937c.518 0 .938-.419.938-.937a.938.938 0 0 0-.938-.937h-.937v-.938a.938.938 0 0 0-.938-.938.938.938 0 0 0-.937.938v.938h-.938a.938.938 0 0 0 0 1.874ZM123.89 7.84h.938v.937a.937.937 0 0 0 .937.938c.518 0 .937-.42.937-.938V7.84h.938a.938.938 0 0 0 .937-.938.937.937 0 0 0-.937-.937h-.938v-.938a.938.938 0 0 0-.937-.937.937.937 0 0 0-.937.937v.938h-.938a.937.937 0 1 0 0 1.875Zm29.668-2.215a2.815 2.815 0 0 0 2.813-2.811A2.816 2.816 0 0 0 153.559 0a2.816 2.816 0 0 0-2.812 2.814 2.815 2.815 0 0 0 2.812 2.811Zm5.863 10.652a2.816 2.816 0 0 0-2.813 2.813 2.815 2.815 0 0 0 2.813 2.812 2.815 2.815 0 0 0 2.812-2.812 2.817 2.817 0 0 0-2.812-2.813ZM135.61 8.964a2.815 2.815 0 0 0 2.812-2.812 2.816 2.816 0 0 0-2.812-2.812 2.816 2.816 0 0 0-2.813 2.812 2.814 2.814 0 0 0 2.813 2.812Zm8.394 26.151a11.458 11.458 0 0 0 .53-1.296c.16-.47.303-.984.418-1.543a14.286 14.286 0 0 0 .195-1.209 37.742 37.742 0 0 0 1.039.768 28.705 28.705 0 0 0 .599.415 24.857 24.857 0 0 0 .755.491c.233.145.458.28.673.402a15.488 15.488 0 0 0 .213.118l-4.422 1.854Zm20.234-25.573a1.231 1.231 0 0 0 .067.017.94.94 0 0 1 .674 1.102.957.957 0 0 1-.012.048.938.938 0 0 1-.905.694.945.945 0 0 1-.173-.017 1.102 1.102 0 0 1-.07-.015l-.048-.013a.938.938 0 0 1-.711-.91.94.94 0 0 1 .028-.226.938.938 0 0 1 .909-.712c.067 0 .135.008.202.023a.955.955 0 0 1 .025.005 4.511 4.511 0 0 1 .014.004Zm-31.519 17.037a.78.78 0 0 0-.001.001.937.937 0 0 0-.51.577.934.934 0 0 0 .021.619.938.938 0 0 0 .876.603.913.913 0 0 0 .142-.011.972.972 0 0 0 .168-.043.938.938 0 0 0 .628-.884.93.93 0 0 0-.011-.141.94.94 0 0 0-.042-.169.934.934 0 0 0-.03-.075.782.782 0 0 0-.002-.005.937.937 0 0 0-1.239-.472Zm26.703-6.552a.938.938 0 0 1-.938-.937.939.939 0 0 1 .938-.938.939.939 0 0 1 .937.938c0 .517-.42.937-.937.937ZM148.424 8.912a.94.94 0 0 0 .937-.937.94.94 0 0 0-.937-.939.94.94 0 0 0-.938.939.94.94 0 0 0 .938.937Zm12.562 24.75a.94.94 0 0 0-.938.938.94.94 0 0 0 .938.937.94.94 0 0 0 .938-.937.94.94 0 0 0-.938-.938Zm-6.49-30.848a.939.939 0 0 0-.937-.938.939.939 0 0 0-.937.938c0 .516.42.937.937.937a.938.938 0 0 0 .938-.937Zm-17.949 3.338a.939.939 0 0 0-.937-.937.939.939 0 0 0-.938.937.938.938 0 0 0 .938.937c.516 0 .937-.42.937-.937Zm22.564 21.416a.94.94 0 0 0-.937-.937.94.94 0 0 0-.938.937c0 .517.421.938.938.938a.939.939 0 0 0 .937-.938ZM130.05 2.814a.94.94 0 0 0 .938-.938.939.939 0 0 0-.938-.937.939.939 0 0 0-.937.937.94.94 0 0 0 .937.938Zm7.008 14.062-.002.002" fill="rgba(2,60,204, 1)" fill-rule="evenodd" data-name="Icon"/></svg>