<svg xmlns="http://www.w3.org/2000/svg" width="36" height="36" viewBox="2 1 36 36"><g data-name="Icon"><path d="M24.28 12.124a5.88 5.88 0 0 0 .013.03c.107.238.244.507.313.76.018.052.33.913.33 1.158v.93a5.368 5.368 0 0 1-.54 2.186c-.416.923-1.02 1.849-1.623 2.775a33.308 33.308 0 0 0-1.17 1.883c-.125.227-.4.473-.543.719a35.089 35.089 0 0 1-.34.562 17.428 17.428 0 0 0-.342.579 887.799 887.799 0 0 0-1.811 3.04 465.093 465.093 0 0 1-.595.996 3123.854 3123.854 0 0 0-.797-1.255 289.275 289.275 0 0 1-3.117-4.992 68.866 68.866 0 0 0-.867-1.38c-.984-1.545-1.967-3.129-2.161-4.64a2.028 2.028 0 0 1-.003-.027 8.51 8.51 0 0 1-.027-.481v-.843C11.45 10 14.816 8 17.874 8c1.73 0 3.774.625 5.225 2.25a6.787 6.787 0 0 1 1.18 1.874Zm-8.718 3.37a3.13 3.13 0 0 0 .186.388c.525.917 1.386 1.26 2.182 1.26a2.758 2.758 0 0 0 .075 0 2.579 2.579 0 0 0 2.553-2.526 2.51 2.51 0 0 0-.739-1.792 2.552 2.552 0 0 0-1.812-.735c-.903 0-1.91.42-2.321 1.322a2.205 2.205 0 0 0-.19.923v.545c0 .034-.007.422.066.615Z" fill="rgba(16, 121, 200, 1)" fill-rule="evenodd" data-name="Forma 1"/><path d="M20 1c9.941 0 18 8.059 18 18 0 9.94-8.059 18-18 18S2 28.94 2 19C2 9.059 10.059 1 20 1Z" stroke-miterlimit="100" stroke="rgba(16, 121, 200, 1)" fill="transparent" data-name="Ellipse 798"/></g></svg>