<svg xmlns="http://www.w3.org/2000/svg" width="36" height="36" viewBox="2 1 36 36"><g data-name="Icon"><path d="M26.393 10H11.607a1.851 1.851 0 0 0-.5.064 1.323 1.323 0 0 0-.69.452 1.854 1.854 0 0 0-.384.877 2.527 2.527 0 0 0-.033.416c0 .326.112.672.336 1.04a3.835 3.835 0 0 0 .217.317 5.813 5.813 0 0 0 .533.616 4.32 4.32 0 0 0 .642.532 42.067 42.067 0 0 0 .176.123c.267.185.74.51 1.418.975a2078.436 2078.436 0 0 0 .465.319 685.413 685.413 0 0 1 2.632 1.815 4.227 4.227 0 0 1 .027.019l.119.084a20.716 20.716 0 0 1 .004.002l.277.197a33.546 33.546 0 0 0 .156.112c.15.106.278.195.386.267a7.484 7.484 0 0 0 .175.113l.165.101a13.71 13.71 0 0 0 .182.109 3.784 3.784 0 0 0 .289.152c.096.045.19.083.28.113a2.091 2.091 0 0 0 .009.003c.18.06.347.09.5.09a.766.766 0 0 0 .002 0h.02c.154 0 .322-.03.502-.09a2.531 2.531 0 0 0 .28-.112c.094-.043.19-.094.288-.15a4.547 4.547 0 0 0 .01-.006c.204-.12.378-.228.522-.323a11.045 11.045 0 0 0 .115-.078c.114-.078.246-.17.396-.277a37.832 37.832 0 0 0 .032-.024l.253-.18a41.095 41.095 0 0 1 .024-.017l.146-.103a2.579 2.579 0 0 1 .004-.002 119.817 119.817 0 0 1 .187-.13l.805-.553a1001.821 1001.821 0 0 1 .024-.017 6900.457 6900.457 0 0 0 .699-.48l1.723-1.184a39805.461 39805.461 0 0 1 1.263-.868 4.75 4.75 0 0 0 1.225-1.223 2.856 2.856 0 0 0 .38-.768A2.449 2.449 0 0 0 28 11.59a1.514 1.514 0 0 0-.455-1.101 1.89 1.89 0 0 0-.022-.022 1.562 1.562 0 0 0-1.13-.467Zm0 13.999c.404 0 .755-.133 1.053-.395l-5.1-5.047-.353.251a41.337 41.337 0 0 1-.273.197c-.259.186-.478.337-.656.455a3.893 3.893 0 0 1-.294.172 7.34 7.34 0 0 1-.655.305c-.395.162-.764.243-1.105.243h-.02c-.342 0-.71-.081-1.105-.243a7.15 7.15 0 0 1-.69-.323 3.785 3.785 0 0 1-.26-.154c-.181-.12-.406-.275-.672-.466a42.006 42.006 0 0 1-.257-.186 51.719 51.719 0 0 0-.168-.121 29.832 29.832 0 0 0-.184-.132l-5.1 5.05c.298.26.649.394 1.053.394h14.786ZM10 14.513a5.301 5.301 0 0 0 1.015.865 332.76 332.76 0 0 1 3.48 2.366L10 22.193v-7.68Zm14.465 2.575a204.192 204.192 0 0 0-.958.657L28 22.193v-7.68a5.505 5.505 0 0 1-1.004.865c-.941.63-1.785 1.2-2.531 1.71Z" fill="rgba(16, 121, 200, 1)" fill-rule="evenodd" data-name="Forma 1"/><path d="M20 1c9.941 0 18 8.059 18 18 0 9.94-8.059 18-18 18S2 28.94 2 19C2 9.059 10.059 1 20 1Z" stroke-miterlimit="100" stroke="rgba(16, 121, 200, 1)" fill="transparent" data-name="Ellipse 798"/></g></svg>