<svg xmlns="http://www.w3.org/2000/svg" width="47" height="47.001" viewBox="102 0 47 47.001"><path d="m144.095 30.024-3.063-.731v-1.215a6.06 6.06 0 0 0 2.827-4.872 6.125 6.125 0 0 0 .005-.252v-3.42a6.066 6.066 0 0 0-6.059-6.06 6.045 6.045 0 0 0-4.533 2.046 8.092 8.092 0 0 0-7.762-5.841 8.093 8.093 0 0 0-7.768 5.856 6.05 6.05 0 0 0-4.168-2.049 6.112 6.112 0 0 0-.379-.011 6.066 6.066 0 0 0-6.059 6.058v3.421a6.032 6.032 0 0 0 1.665 4.165 6.106 6.106 0 0 0 1.167.959v1.215l-3.062.731A6.37 6.37 0 0 0 102 36.24v6.17c0 .507.411.919.918.919h7.34v2.754c0 .506.411.918.918.918h10.07a.918.918 0 0 0 .919-.918.918.918 0 0 0-.918-.919h-4.098v-4.04a.919.919 0 0 0-.918-.919.919.919 0 0 0-.918.92v4.04h-3.219v-4.142a6.683 6.683 0 0 1 5.142-6.52l4.515-1.082 2.905 6.61a.917.917 0 0 0 .84.548.917.917 0 0 0 .84-.549l2.903-6.6 4.501 1.077a6.682 6.682 0 0 1 5.147 6.52v1.024a.915.915 0 0 0-.073.359.92.92 0 0 0 .068.348.936.936 0 0 0 .005.012v2.394h-3.2v-4.04a.919.919 0 0 0-.918-.919.919.919 0 0 0-.918.92v4.04h-4.495a.918.918 0 0 0-.918.918c0 .506.41.918.918.918h10.45a.918.918 0 0 0 .917-.918v-2.754h7.36a.919.919 0 0 0 .917-.92V36.24a6.37 6.37 0 0 0-4.905-6.216Zm3.07 11.469h-1.837v-4.08a.918.918 0 0 0-.918-.917.918.918 0 0 0-.918.918v4.079h-2.769v-.466a8.525 8.525 0 0 0-1.506-4.855 8.505 8.505 0 0 0-.371-.497l1.905-4.562 2.917.697a4.54 4.54 0 0 1 3.496 4.43v5.253Zm-36.907-.47v.47h-2.75v-4.08a.918.918 0 0 0-.918-.917.918.918 0 0 0-.918.918v4.079h-1.836V36.24a4.54 4.54 0 0 1 3.496-4.43l2.91-.696 1.9 4.55a8.515 8.515 0 0 0-1.881 5.159 8.725 8.725 0 0 0-.003.2Zm15.252-12.259a6.25 6.25 0 0 1-6.243-6.242v-2.123h2.583a8.763 8.763 0 0 0 6.204-2.564l3.693 2.168v2.735a6.249 6.249 0 0 1-6.237 6.026Zm-6.243-11.006a6.25 6.25 0 0 1 6.243-6.243 6.25 6.25 0 0 1 6.242 6.243v.119l-3.407-2.003a.916.916 0 0 0-.41-.124.919.919 0 0 0-.754.322.93.93 0 0 0-.005.005 6.933 6.933 0 0 1-5.326 2.485h-2.583v-.804Zm-10.295 5.196V21.69h2.626a13.172 13.172 0 0 0 5.82-1.356v2.621a4.227 4.227 0 0 1-4.223 4.223 4.227 4.227 0 0 1-4.223-4.223Zm24.61-.15a2.394 2.394 0 0 0 0-.041c.004-.334.006-2.426.006-2.426a13.182 13.182 0 0 0 5.814 1.352h2.626v1.266a4.228 4.228 0 0 1-4.223 4.222 4.227 4.227 0 0 1-4.223-4.223v-.15Zm-24.61-3.044v-.227a4.228 4.228 0 0 1 4.223-4.222 4.23 4.23 0 0 1 4.053 3.034 11.346 11.346 0 0 1-5.65 1.508h-2.626v-.093Zm33.056-.227a4.228 4.228 0 0 0-4.223-4.222 4.23 4.23 0 0 0-4.052 3.034 11.346 11.346 0 0 0 5.65 1.508h2.625v-.32Zm-14.24 12.635-2.291 5.212-2.296-5.223v-1.893a8.064 8.064 0 0 0 2.308.336 8.064 8.064 0 0 0 2.28-.327v1.895Zm-6.423-1.364a6.386 6.386 0 0 0-1.876-.782l-3.073-.736v-1.204a6.093 6.093 0 0 0 1.897-1.892 8.132 8.132 0 0 0 3.052 3.264v1.35Zm8.26-1.333a8.135 8.135 0 0 0 3.072-3.264 6.097 6.097 0 0 0 1.887 1.875v1.204l-3.073.736a6.358 6.358 0 0 0-1.886.79V29.47Zm6.79.64a.923.923 0 0 0 .006-.1 1.115 1.115 0 0 0 0-.007v-.016a1.77 1.77 0 0 0 0-.003V28.85a6.065 6.065 0 0 0 1.384.162 6.046 6.046 0 0 0 1.391-.163v1.167a.584.584 0 0 0 .001.034l.001.008a3.409 3.409 0 0 1 0 .008l-1.401 3.356-1.383-3.312Zm-23.22 3.312-1.394-3.34a.939.939 0 0 0 .003-.066V28.85a6.046 6.046 0 0 0 1.391.163 6.09 6.09 0 0 0 1.385-.162v1.108a.89.89 0 0 0-.001.046.987.987 0 0 0 0 .006c0 .029.002.057.005.086l-1.389 3.326Zm14.072-8.836a.914.914 0 0 0-.471-.25.918.918 0 0 0-.827.25.693.693 0 0 1-.368.192.697.697 0 0 1-.584-.161.703.703 0 0 1-.033-.03.914.914 0 0 0-.47-.252.918.918 0 0 0-.78.207.932.932 0 0 0-.048.044.913.913 0 0 0-.252.474c-.056.29.028.6.252.825a2.517 2.517 0 0 0 1.336.7 2.557 2.557 0 0 0 .454.04c.598 0 1.196-.21 1.672-.629a2.554 2.554 0 0 0 .119-.11.918.918 0 0 0 0-1.3Zm6.9 8.134-2.903-.694c.218-.09.444-.164.675-.22l2.903-.695.898 2.15a8.614 8.614 0 0 0-1.573-.541Zm-17.359-.003a8.612 8.612 0 0 0-1.551.533l.894-2.14 2.91.697c.226.054.446.125.659.212l-2.912.698ZM125.5 3.496a.918.918 0 0 0-.918.919v2.414a.918.918 0 0 0 1.836 0V4.415a.918.918 0 0 0-.918-.919Zm5.859-1.207a.914.914 0 0 0-.469-.25.917.917 0 0 0-.83.25l-1.388 1.388a.915.915 0 0 0-.25.462.916.916 0 0 0 .206.789.93.93 0 0 0 .044.047.91.91 0 0 0 .441.246.921.921 0 0 0 .208.024.91.91 0 0 0 .596-.22.93.93 0 0 0 .053-.05l1.389-1.388a.918.918 0 0 0 0-1.298Zm-9.076 1.393L120.94 2.34a.914.914 0 0 0-.474-.252.918.918 0 0 0-.825.252.914.914 0 0 0-.251.473.917.917 0 0 0 .251.825l1.344 1.343a.912.912 0 0 0 .463.25.927.927 0 0 0 .186.019.92.92 0 0 0 .697-1.516.934.934 0 0 0-.048-.052Zm19.586-1.267a.918.918 0 0 0-.919.919v.63a.918.918 0 0 0 1.836 0v-.63a.918.918 0 0 0-.917-.919Zm-32.788 0a.918.918 0 0 0-.918.919v.63a.918.918 0 1 0 1.836 0v-.63a.918.918 0 0 0-.918-.919Zm30.875 2.541h-.63a.919.919 0 0 0-.917.92c0 .507.41.917.918.917h.63a.918.918 0 0 0 .917-.918.919.919 0 0 0-.918-.919Zm-32.788 0h-.63a.919.919 0 0 0-.917.92c0 .507.411.917.918.917h.63a.918.918 0 0 0 .917-.918.919.919 0 0 0-.918-.919Zm37.242 0h-.63a.919.919 0 0 0-.917.92.918.918 0 0 0 .918.917h.63a.918.918 0 0 0 .917-.918.919.919 0 0 0-.918-.919Zm-32.787 0h-.63a.919.919 0 0 0-.918.92.918.918 0 0 0 .918.917h.63a.918.918 0 0 0 .917-.918.919.919 0 0 0-.917-.919ZM109.08 6.87a.918.918 0 0 0-.918.918v.63a.917.917 0 0 0 .918.918.917.917 0 0 0 .918-.918v-.63a.918.918 0 0 0-.918-.918Zm32.788 0a.918.918 0 0 0-.919.918v.63a.918.918 0 0 0 .919.918.917.917 0 0 0 .917-.918v-.63a.918.918 0 0 0-.917-.918ZM123.07 21.497a.925.925 0 0 0-.649-.269.925.925 0 0 0-.649.27.926.926 0 0 0-.269.649.925.925 0 0 0 .27.648.925.925 0 0 0 .648.27.923.923 0 0 0 .918-.918.922.922 0 0 0-.269-.65Zm6.139 0a.925.925 0 0 0-.65-.269.925.925 0 0 0-.648.27.926.926 0 0 0-.27.649.925.925 0 0 0 .27.648c.17.171.407.27.649.27a.925.925 0 0 0 .649-.27.922.922 0 0 0 .269-.648.922.922 0 0 0-.27-.65ZM126.149.27A.922.922 0 0 0 125.5 0a.922.922 0 0 0-.649.27.922.922 0 0 0-.269.648.925.925 0 0 0 .269.65c.17.17.408.268.65.268a.924.924 0 0 0 .648-.269.924.924 0 0 0 .27-.649.922.922 0 0 0-.27-.648Zm-.024 45.164a.923.923 0 0 0-.649-.27.923.923 0 0 0-.649.27.921.921 0 0 0-.269.649.925.925 0 0 0 .27.648.925.925 0 0 0 .648.27.925.925 0 0 0 .65-.27.926.926 0 0 0 .268-.648.921.921 0 0 0-.269-.649Z" fill="rgba(2,60,204, 1)" fill-rule="evenodd" data-name="Icon"/></svg>