<svg xmlns="http://www.w3.org/2000/svg" width="15.995" height="16.003" viewBox="11.002 2208 15.995 16.003"><path d="m26.639 2220.658-2.47-2.478c-.492-.491-1.307-.476-1.816.034l-1.245 1.249-.245-.138c-.786-.436-1.862-1.035-2.994-2.171-1.135-1.139-1.732-2.219-2.17-3.007l-.133-.24.835-.837.41-.412c.51-.511.525-1.328.034-1.821l-2.47-2.477c-.491-.493-1.306-.477-1.816.034l-.696.701.019.02a4.05 4.05 0 0 0-.574 1.014 4.21 4.21 0 0 0-.255 1.03c-.326 2.711.91 5.19 4.263 8.552 4.635 4.649 8.37 4.297 8.532 4.28a4.145 4.145 0 0 0 2.038-.833l.015.014.705-.692c.51-.512.523-1.328.033-1.822Z" fill="rgba(16, 121, 200, 1)" fill-rule="evenodd" data-name="Forma 1"/></svg>