<svg xmlns="http://www.w3.org/2000/svg" width="36" height="31" viewBox="161 52 36 31"><path d="M195.154 52H183.93c-1.02 0-1.847.806-1.847 1.801v10.95c0 .993.828 1.8 1.847 1.8h5.372a16.048 16.048 0 0 1-.313 2.87c-.327 1.573-.905 2.913-1.733 4.018a8.995 8.995 0 0 1-1.885 1.84c-.609.448-1.3.86-2.073 1.233a16.845 16.845 0 0 1-.668.306 1.78 1.78 0 0 0-.932 2.381 1.83 1.83 0 0 0 .016.036l1.33 2.737A1.847 1.847 0 0 0 184.71 83c.246 0 .496-.048.736-.15a22.7 22.7 0 0 0 3.764-1.999 18.368 18.368 0 0 0 2.428-1.92 16.392 16.392 0 0 0 2.85-3.5 14.11 14.11 0 0 0 1.37-3.051 20.67 20.67 0 0 0 .638-2.755c.313-1.883.48-4.109.5-6.679a68.138 68.138 0 0 0 .003-.536V53.8a1.824 1.824 0 0 0-1.846-1.8Zm-30.239 30.844a22.691 22.691 0 0 0 3.908-2.115 18.899 18.899 0 0 0 2.254-1.797 16.47 16.47 0 0 0 2.81-3.39 13.945 13.945 0 0 0 1.436-3.137 20.165 20.165 0 0 0 .626-2.675c.32-1.892.492-4.145.513-6.757a69.106 69.106 0 0 0 .002-.563V53.8a1.824 1.824 0 0 0-1.846-1.8h-11.224c-1.02 0-1.846.805-1.846 1.8v10.95a1.825 1.825 0 0 0 1.846 1.8h5.372c-.07 2.867-.753 5.163-2.046 6.888a8.995 8.995 0 0 1-1.885 1.84c-.608.448-1.3.86-2.072 1.233a16.845 16.845 0 0 1-.669.306 1.78 1.78 0 0 0-.932 2.381 1.83 1.83 0 0 0 .017.036l1.325 2.73a1.86 1.86 0 0 0 1.873 1.019 1.888 1.888 0 0 0 .538-.14Z" fill="rgba(223, 223, 223, 1)" fill-rule="evenodd" data-name="Quote Icon"/></svg>