<svg xmlns="http://www.w3.org/2000/svg" width="51.035" height="51" viewBox="74 0 51.035 51"><path d="M106.608 42.41a16.962 16.962 0 0 0 .023 0 16.74 16.74 0 0 0 16.724-16.734 16.962 16.962 0 0 0 0-.022A16.74 16.74 0 0 0 106.61 8.94a17.247 17.247 0 0 0-.022 0 16.746 16.746 0 0 0-16.702 15.884h3.475c.427-6.654 5.732-11.955 12.39-12.382 7.313-.47 13.623 5.074 14.092 12.382a13.45 13.45 0 0 1 .028.863 13.265 13.265 0 0 1-12.419 13.22 13.48 13.48 0 0 1-.862.028 13.266 13.266 0 0 1-13.23-12.411h-3.474a16.74 16.74 0 0 0 16.723 15.885Zm18.407-17.585A18.441 18.441 0 0 0 106.602 7.24a18.77 18.77 0 0 0-.864.02c-9.52.44-17.137 8.051-17.576 17.564H85.55l-2.467-3.975a.85.85 0 0 0-.723-.402h-7.504a.85.85 0 0 0-.851.85.85.85 0 0 0 .128.448l2.455 3.955-2.455 3.957a.846.846 0 0 0-.12.333.85.85 0 0 0 .394.837.847.847 0 0 0 .449.128h7.504a.85.85 0 0 0 .723-.402l2.5-4.03h2.579a18.44 18.44 0 0 0 18.412 17.585 18.77 18.77 0 0 0 .865-.02 18.44 18.44 0 0 0 17.596-18.4 18.734 18.734 0 0 0-.02-.864Zm-17.577 8.896a8.092 8.092 0 0 0 7.2-8.896c-.47-4.443-4.454-7.665-8.9-7.195a8.093 8.093 0 0 0-7.201 7.195H95.06a11.566 11.566 0 0 1 11.525-10.71 11.741 11.741 0 0 1 .861.03 11.565 11.565 0 0 1 10.718 11.518 11.714 11.714 0 0 1-.032.862c-.47 6.367-6.015 11.148-12.387 10.679a11.564 11.564 0 0 1-10.685-10.68h3.476c.47 4.444 4.455 7.666 8.901 7.197Zm.017-5.254a2.92 2.92 0 0 0 2.071-2.791c0-.282-.04-.568-.127-.851a2.922 2.922 0 0 0-2.793-2.07c-.282 0-.569.041-.852.128a2.92 2.92 0 0 0-1.944 1.942h-3.555a6.394 6.394 0 0 1 6.33-5.541 6.458 6.458 0 0 1 .858.057 6.393 6.393 0 0 1 5.545 6.326 6.446 6.446 0 0 1-.057.858 6.394 6.394 0 0 1-6.33 5.541 6.459 6.459 0 0 1-.859-.057 6.392 6.392 0 0 1-5.487-5.484h3.555a2.922 2.922 0 0 0 3.316 2.022 2.952 2.952 0 0 0 .33-.08Zm-29.409-3.642-1.664-2.678h5.504l1.662 2.678h-5.502Zm3.84 4.431h-5.504l1.662-2.677h5.502l-1.66 2.677ZM77.402 16.15h6.805v1.701h-6.805v-1.7Zm0 33.15h6.805V51h-6.805v-1.7ZM82.506 0h6.804v1.7h-6.804V0Zm6.804 5.95h6.805v1.7H89.31v-1.7Zm-8.506 28.9h5.104v1.7h-5.104v-1.7Zm25.783-10.025h-.871a1.215 1.215 0 0 1 .63-.345 1.22 1.22 0 0 1 1.027.259 1.238 1.238 0 0 1 .068.061 1.213 1.213 0 0 1 .344.623c.075.356-.01.739-.257 1.034a1.237 1.237 0 0 1-.062.068 1.215 1.215 0 0 1-.63.345 1.22 1.22 0 0 1-1.027-.26 1.238 1.238 0 0 1-.069-.06.782.782 0 0 1-.024-.025h.87c.47 0 .851-.38.851-.85a.85.85 0 0 0-.85-.85ZM74 16.149h1.701v1.701H74v-1.7Zm0 33.15h1.701V51H74v-1.7ZM79.103 0h1.701v1.7h-1.7V0Zm-1.7 34.85h1.7v1.7h-1.7v-1.7ZM91.01 42.5h1.701v1.7h-1.7v-1.7Z" fill="rgba(2,60,204, 1)" fill-rule="evenodd" data-name="Forma 1"/></svg>